<svg width="1200" height="760" viewBox="0 0 1200 760" fill="none" xmlns="http://www.w3.org/2000/svg" role="img" aria-labelledby="title desc">
  <title id="title">Church fundraising toolkit cover</title>
  <desc id="desc">A church toolkit cover with a simple church, donation box, and community giving shapes.</desc>
  <rect width="1200" height="760" fill="#F7F1E7"/>
  <rect x="0" y="0" width="1200" height="760" fill="#243D2B"/>
  <path d="M0 584C250 488 438 616 646 520C830 435 980 376 1200 416V760H0V584Z" fill="#F2DFC8"/>
  <rect x="258" y="322" width="334" height="230" rx="14" fill="white"/>
  <path d="M220 330L425 172L630 330H220Z" fill="#D9A441"/>
  <path d="M425 168V94M388 132H462" stroke="white" stroke-width="20" stroke-linecap="round"/>
  <rect x="378" y="424" width="94" height="128" rx="47" fill="#243D2B"/>
  <rect x="682" y="362" width="280" height="176" rx="18" fill="#B8573A"/>
  <path d="M732 362l90-70 90 70" fill="#C98542"/>
  <path d="M772 412h100" stroke="white" stroke-width="18" stroke-linecap="round"/>
  <path d="M822 438v58" stroke="white" stroke-width="18" stroke-linecap="round"/>
  <circle cx="894" cy="268" r="50" fill="#D9A441"/>
  <path d="M894 244v48M870 268h48" stroke="#243D2B" stroke-width="12" stroke-linecap="round"/>
  <text x="92" y="704" fill="#243D2B" font-family="Arial, sans-serif" font-size="38" font-weight="700">Church Fundraising Toolkit</text>
</svg>
